<svg id="visual" viewBox="0 0 960 540" width="960" height="540" xmlns="http://www.w3.org/2000/svg" xmlns:xlink="http://www.w3.org/1999/xlink" version="1.1"><rect x="0" y="0" width="960" height="540" fill="#fff"></rect><defs><linearGradient id="grad1_0" x1="43.8%" y1="0%" x2="100%" y2="100%"><stop offset="14.444444444444446%" stop-color="#ffffff" stop-opacity="1"></stop><stop offset="85.55555555555554%" stop-color="#ffffff" stop-opacity="1"></stop></linearGradient></defs><defs><linearGradient id="grad2_0" x1="0%" y1="0%" x2="56.3%" y2="100%"><stop offset="14.444444444444446%" stop-color="#ffffff" stop-opacity="1"></stop><stop offset="85.55555555555554%" stop-color="#ffffff" stop-opacity="1"></stop></linearGradient></defs><g transform="translate(960, 0)"><path d="M0 324C-43.6 314.2 -87.2 304.4 -116 279.9C-144.7 255.5 -158.6 216.4 -190.9 190.9C-223.3 165.4 -274.1 153.5 -299.3 124C-324.6 94.4 -324.3 47.2 -324 0L0 0Z" fill="#2bb4e6"></path></g><g transform="translate(0, 540)"><path d="M0 -324C38.6 -308.4 77.3 -292.7 114.8 -277.2C152.3 -261.6 188.7 -246.1 221.3 -221.3C254 -196.5 282.8 -162.4 299.3 -124C315.8 -85.6 319.9 -42.8 324 0L0 0Z" fill="#2bb4e6"></path></g></svg>